
<svg id="svg" viewBox="0 0 295 267" xmlns="http://www.w3.org/2000/svg" width="100%" height="100%" preserveAspectRatio="xMinYMin meet">
 <title/>
<path d="M147.5 65.2989C147.5 110.064 185.071 191.509 147.5 267C118.974 213.759 0 171.643 0 81.0536C0 36.2889 33.019 0 73.75 0C114.481 0 147.5 20.5343 147.5 65.2989Z" fill="white"/>
<path d="M295 81.0536C295 180.384 199.681 195.482 147.5 267C130.802 195.482 147.5 106.436 147.5 61.6712C147.5 16.9065 180.519 0 221.25 0C261.981 0 295 36.2889 295 81.0536Z" fill="white"/>
<path d="M175.47 56.7319C175.47 70.1348 161.956 81 145.285 81C128.615 81 115.101 70.1348 115.101 56.7319C115.101 43.329 86.1093 -24.456 145.285 32.4638C209.5 -23.5 175.47 43.329 175.47 56.7319Z" fill="white"/>
</svg>
