<svg id="svg" viewBox="0 0 295 267" xmlns="http://www.w3.org/2000/svg" width="100%" height="100%" preserveAspectRatio="xMinYMin meet">
 <title/>
<path d="M147.5 65.2989C147.5 110.064 185.071 191.509 147.5 267C118.974 213.759 0 171.643 0 81.0536C0 36.2889 33.019 0 73.75 0C114.481 0 147.5 20.5343 147.5 65.2989Z" fill="white"/>
<path d="M295 81.0536C295 180.384 199.681 195.482 147.5 267C130.802 195.482 147.5 106.436 147.5 61.6712C147.5 16.9065 180.519 0 221.25 0C261.981 0 295 36.2889 295 81.0536Z" fill="white"/>
<path d="M175.47 56.7319C175.47 70.1348 161.956 81 145.285 81C128.615 81 115.101 70.1348 115.101 56.7319C115.101 43.329 86.1093 -24.456 145.285 32.4638C209.5 -23.5 175.47 43.329 175.47 56.7319Z" fill="white"/>
<path d="M168.066 144.2L193.716 66" stroke="#999999" stroke-width="4"/>
<line x1="193.9" y1="66.3744" x2="207.514" y2="107.713" stroke="#999999" stroke-width="4"/>
<line y1="-2" x2="46.6465" y2="-2" transform="matrix(1 0.00059503 -0.000896584 1 206.989 108)" stroke="#999999" stroke-width="4"/>
<circle cx="256.407" cy="106" r="4" fill="#999999"/>
<line x1="151.897" y1="95.3675" x2="167.897" y2="143.368" stroke="#999999" stroke-width="4"/>
<line x1="128.922" y1="164.515" x2="152.104" y2="95.3643" stroke="#999999" stroke-width="4"/>
<line x1="75.845" y1="126.313" x2="95.0958" y2="66.3883" stroke="#999999" stroke-width="4"/>
<line x1="33.9101" y1="125" x2="76.873" y2="125" stroke="#999999" stroke-width="4"/>
<path d="M95.3276 65.2588L129.237 164.49" stroke="#999999" stroke-width="4"/>
<circle cx="33" cy="125" r="4" fill="#999999"/>
<path d="M95.5 60L97.8017 66.4027L95.5 67L93 66.4027L95.5 60Z" fill="#999999"/>
<path d="M151.801 89.5L154.3 96L152.365 95.5973L149.8 96L151.801 89.5Z" fill="#999999"/>
<path d="M193.5 60.5L195.8 66.094L193.539 67.0973L191.5 66.5L193.5 60.5Z" fill="#999999"/>
<path d="M168.261 148.14L166 144L168.261 142.019L170 144.5L168.261 148.14Z" fill="#999999"/>
<path d="M128.964 171.334L127 164.04L128.761 164.559L131 164.5L128.964 171.334Z" fill="#999999"/>
</svg>
